<svg version="1.1" xmlns="http://www.w3.org/2000/svg" xmlns:xlink="http://www.w3.org/1999/xlink" width="2132" height="1580"><defs/><g><g transform="translate(2,2) scale(1,1)"><path fill="none" stroke="#000000" d="M 8 8 L 2120 8 L 2120 1568 L 8 1568 L 8 8" stroke-miterlimit="10"/></g><g transform="translate(2,2) scale(1,1)"><path fill="#ffffff" stroke="none" d="M 8 8 L 8 30 L 164.3997802734375 30 L 175.3997802734375 19 L 175.3997802734375 8 L 8 8"/></g><g transform="translate(2,2) scale(1,1)"><path fill="none" stroke="#000000" d="M 8 8 L 8 30 L 164.3997802734375 30 L 175.3997802734375 19 L 175.3997802734375 8 L 8 8 L 8 8" stroke-miterlimit="10"/></g><g transform="translate(2,2) scale(1,1)"><g><path fill="none" stroke="none"/><text fill="#000000" stroke="none" font-family="JetBrains Mono" font-size="13px" font-style="normal" font-weight="normal" text-decoration="none" x="34.5999755859375" y="24.05049991607666">SequenceDiagram1</text></g></g><g transform="translate(2,2) scale(1,1)"><g><path fill="none" stroke="none"/><text fill="#000000" stroke="none" font-family="JetBrains Mono" font-size="13px" font-style="normal" font-weight="bold" text-decoration="none" x="13" y="23.744999885559082">sd</text></g></g><g transform="translate(2,2) scale(1,1)"><path fill="#ffffd8" stroke="none" d="M 127.77076871004972 47.3 C 127.77076871004972 43.82060576 130.64917043223153 41 134.19985961914062 41 C 137.75054880604972 41 140.62895052823154 43.82060576 140.62895052823154 47.3 C 140.62895052823154 50.779394239999995 137.75054880604972 53.6 134.19985961914062 53.6 C 130.64917043223153 53.6 127.77076871004972 50.779394239999995 127.77076871004972 47.3 Z"/></g><g transform="translate(2,2) scale(1,1)"><path fill="none" stroke="#000000" d="M 127.77076871004972 47.3 C 127.77076871004972 43.82060576 130.64917043223153 41 134.19985961914062 41 C 137.75054880604972 41 140.62895052823154 43.82060576 140.62895052823154 47.3 C 140.62895052823154 50.779394239999995 137.75054880604972 53.6 134.19985961914062 53.6 C 130.64917043223153 53.6 127.77076871004972 50.779394239999995 127.77076871004972 47.3 Z" stroke-miterlimit="10"/></g><g transform="translate(2,2) scale(1,1)"><path fill="none" stroke="#000000" d="M 134.19985961914062 53.6 L 134.19985961914062 66.4" stroke-miterlimit="10"/></g><g transform="translate(2,2) scale(1,1)"><path fill="none" stroke="#000000" d="M 127.39258689186791 58.4 L 141.00713234641336 58.4" stroke-miterlimit="10"/></g><g transform="translate(2,2) scale(1,1)"><path fill="none" stroke="#000000" d="M 134.19985961914062 66.4 L 124.74531416459517 79" stroke-miterlimit="10"/></g><g transform="translate(2,2) scale(1,1)"><path fill="none" stroke="#000000" d="M 134.19985961914062 66.4 L 143.6544050736861 79" stroke-miterlimit="10"/></g><g transform="translate(2,2) scale(1,1)"><g><path fill="none" stroke="none"/><text fill="#000000" stroke="none" font-family="JetBrains Mono" font-size="13px" font-style="normal" font-weight="bold" text-decoration="none" x="44.5" y="98.05049991607666">Lifeline1: Пользователь</text></g></g><g transform="translate(2,2) scale(1,1)"><path fill="none" stroke="#000000" d="M 135.5 105 L 135.5 920" stroke-miterlimit="10" stroke-dasharray="3"/></g><g transform="translate(2,2) scale(1,1)"><rect fill="#C0C0C0" stroke="none" x="567" y="47" width="151.59979248046875" height="39" opacity="0.2"/></g><g transform="translate(2,2) scale(1,1)"><rect fill="#ffffd8" stroke="none" x="560" y="40" width="151.59979248046875" height="39"/></g><g transform="translate(2,2) scale(1,1)"><path fill="none" stroke="#000000" d="M 560 40 L 711.5997924804688 40 L 711.5997924804688 79 L 560 79 L 560 40 Z Z" stroke-miterlimit="10"/></g><g transform="translate(2,2) scale(1,1)"><g><path fill="none" stroke="none"/><text fill="#000000" stroke="none" font-family="JetBrains Mono" font-size="13px" font-style="normal" font-weight="bold" text-decoration="none" x="569.5" y="58.05049991607666">Lifeline2: Client</text></g></g><g transform="translate(2,2) scale(1,1)"><path fill="none" stroke="#000000" d="M 636.5 80 L 636.5 920" stroke-miterlimit="10" stroke-dasharray="3"/></g><g transform="translate(2,2) scale(1,1)"><rect fill="#C0C0C0" stroke="none" x="903" y="47" width="151.59979248046875" height="39" opacity="0.2"/></g><g transform="translate(2,2) scale(1,1)"><rect fill="#ffffd8" stroke="none" x="896" y="40" width="151.59979248046875" height="39"/></g><g transform="translate(2,2) scale(1,1)"><path fill="none" stroke="#000000" d="M 896 40 L 1047.5997924804688 40 L 1047.5997924804688 79 L 896 79 L 896 40 Z Z" stroke-miterlimit="10"/></g><g transform="translate(2,2) scale(1,1)"><g><path fill="none" stroke="none"/><text fill="#000000" stroke="none" font-family="JetBrains Mono" font-size="13px" font-style="normal" font-weight="bold" text-decoration="none" x="905.5" y="58.05049991607666">Lifeline3: Server</text></g></g><g transform="translate(2,2) scale(1,1)"><path fill="none" stroke="#000000" d="M 972.5 80 L 972.5 920" stroke-miterlimit="10" stroke-dasharray="3"/></g><g transform="translate(2,2) scale(1,1)"><path fill="#000000" stroke="none" d="M 112 319 C 112 315.1340064 115.1340064 312 119 312 C 122.8659936 312 126 315.1340064 126 319 C 126 322.8659936 122.8659936 326 119 326 C 115.1340064 326 112 322.8659936 112 319 Z"/></g><g transform="translate(2,2) scale(1,1)"><path fill="none" stroke="#000000" d="M 135 105 L 629 105" stroke-miterlimit="10"/></g><g transform="translate(2,2) scale(1,1)"><path fill="#000000" stroke="none" d="M 618.8373251423759 109.20951775601598 L 629 105 L 618.8373251423758 100.79048224398402"/></g><g transform="translate(2,2) scale(1,1)"><path fill="none" stroke="#000000" d="M 618.8373251423759 109.20951775601598 L 629 105 L 618.8373251423758 100.79048224398402 L 618.8373251423759 109.20951775601598" stroke-miterlimit="10"/></g><g transform="translate(2,2) scale(1,1)"><g><path fill="none" stroke="none"/><text fill="#000000" stroke="none" font-family="JetBrains Mono" font-size="13px" font-style="normal" font-weight="normal" text-decoration="none" x="311.5" y="100.10249996185303">1 : Открывает сайт</text></g></g><g transform="translate(2,2) scale(1,1)"><rect fill="#ffffff" stroke="none" x="629" y="105" width="13" height="28"/></g><g transform="translate(2,2) scale(1,1)"><path fill="none" stroke="#000000" d="M 629 105 L 642 105 L 642 133 L 629 133 L 629 105 Z Z" stroke-miterlimit="10"/></g><g transform="translate(2,2) scale(1,1)"><path fill="none" stroke="#000000" d="M 629 128 L 141 128" stroke-miterlimit="10"/></g><g transform="translate(2,2) scale(1,1)"><path fill="#000000" stroke="none" d="M 151.16267485762415 123.79048224398402 L 141 128 L 151.16267485762415 132.209517756016"/></g><g transform="translate(2,2) scale(1,1)"><path fill="none" stroke="#000000" d="M 151.16267485762415 123.79048224398402 L 141 128 L 151.16267485762415 132.209517756016 L 151.16267485762415 123.79048224398402" stroke-miterlimit="10"/></g><g transform="translate(2,2) scale(1,1)"><g><path fill="none" stroke="none"/><text fill="#000000" stroke="none" font-family="JetBrains Mono" font-size="13px" font-style="normal" font-weight="normal" text-decoration="none" x="255.5" y="142.80999994277954">2 : Показывает стартовую страницу</text></g></g><g transform="translate(2,2) scale(1,1)"><rect fill="#ffffff" stroke="none" x="128" y="128" width="13" height="72"/></g><g transform="translate(2,2) scale(1,1)"><path fill="none" stroke="#000000" d="M 128 128 L 141 128 L 141 200 L 128 200 L 128 128 Z Z" stroke-miterlimit="10"/></g><g transform="translate(2,2) scale(1,1)"><path fill="none" stroke="#000000" d="M 141 192 L 629 192" stroke-miterlimit="10"/></g><g transform="translate(2,2) scale(1,1)"><path fill="#000000" stroke="none" d="M 618.8373251423759 196.209517756016 L 629 192 L 618.8373251423758 187.790482243984"/></g><g transform="translate(2,2) scale(1,1)"><path fill="none" stroke="#000000" d="M 618.8373251423759 196.209517756016 L 629 192 L 618.8373251423758 187.790482243984 L 618.8373251423759 196.209517756016" stroke-miterlimit="10"/></g><g transform="translate(2,2) scale(1,1)"><g><path fill="none" stroke="none"/><text fill="#000000" stroke="none" font-family="JetBrains Mono" font-size="13px" font-style="normal" font-weight="normal" text-decoration="none" x="260.5" y="187.10249996185303">3 : Нажимает на кнопку "Перейти"</text></g></g><g transform="translate(2,2) scale(1,1)"><rect fill="#ffffff" stroke="none" x="629" y="192" width="13" height="240"/></g><g transform="translate(2,2) scale(1,1)"><path fill="none" stroke="#000000" d="M 629 192 L 642 192 L 642 432 L 629 432 L 629 192 Z Z" stroke-miterlimit="10"/></g><g transform="translate(2,2) scale(1,1)"><path fill="none" stroke="#000000" d="M 642 200 L 965 200" stroke-miterlimit="10"/></g><g transform="translate(2,2) scale(1,1)"><path fill="#000000" stroke="none" d="M 954.8373251423759 204.209517756016 L 965 200 L 954.8373251423758 195.790482243984"/></g><g transform="translate(2,2) scale(1,1)"><path fill="none" stroke="#000000" d="M 954.8373251423759 204.209517756016 L 965 200 L 954.8373251423758 195.790482243984 L 954.8373251423759 204.209517756016" stroke-miterlimit="10"/></g><g transform="translate(2,2) scale(1,1)"><g><path fill="none" stroke="none"/><text fill="#000000" stroke="none" font-family="JetBrains Mono" font-size="13px" font-style="normal" font-weight="normal" text-decoration="none" x="689.5" y="195.3949999809265">4 : Отправляет запрос /create</text></g></g><g transform="translate(2,2) scale(1,1)"><rect fill="#ffffff" stroke="none" x="965" y="200" width="13" height="240"/></g><g transform="translate(2,2) scale(1,1)"><path fill="none" stroke="#000000" d="M 965 200 L 978 200 L 978 440 L 965 440 L 965 200 Z Z" stroke-miterlimit="10"/></g><g transform="translate(2,2) scale(1,1)"><path fill="none" stroke="#000000" d="M 965 264 L 642 264" stroke-miterlimit="10" stroke-dasharray="3"/></g><g transform="translate(2,2) scale(1,1)"><path fill="none" stroke="#000000" d="M 652.1626748576241 259.790482243984 L 642 264 L 652.1626748576241 268.209517756016" stroke-miterlimit="10"/></g><g transform="translate(2,2) scale(1,1)"><g><path fill="none" stroke="none"/><text fill="#000000" stroke="none" font-family="JetBrains Mono" font-size="13px" font-style="normal" font-weight="normal" text-decoration="none" x="772.5" y="282.7449998855591">5 : ERR</text></g></g><g transform="translate(2,2) scale(1,1)"><path fill="none" stroke="#000000" d="M 629 275 L 141 275" stroke-miterlimit="10"/></g><g transform="translate(2,2) scale(1,1)"><path fill="#000000" stroke="none" d="M 151.16267485762415 270.790482243984 L 141 275 L 151.16267485762415 279.209517756016"/></g><g transform="translate(2,2) scale(1,1)"><path fill="none" stroke="#000000" d="M 151.16267485762415 270.790482243984 L 141 275 L 151.16267485762415 279.209517756016 L 151.16267485762415 270.790482243984" stroke-miterlimit="10"/></g><g transform="translate(2,2) scale(1,1)"><g><path fill="none" stroke="none"/><text fill="#000000" stroke="none" font-family="JetBrains Mono" font-size="13px" font-style="normal" font-weight="normal" text-decoration="none" x="306.5" y="289.80999994277954">6 : Отрисовка ошибки</text></g></g><g transform="translate(2,2) scale(1,1)"><rect fill="#ffffff" stroke="none" x="128" y="275" width="13" height="28"/></g><g transform="translate(2,2) scale(1,1)"><path fill="none" stroke="#000000" d="M 128 275 L 141 275 L 141 303 L 128 303 L 128 275 Z Z" stroke-miterlimit="10"/></g><g transform="translate(2,2) scale(1,1)"><path fill="none" stroke="#000000" d="M 965 353 L 642 353" stroke-miterlimit="10" stroke-dasharray="3"/></g><g transform="translate(2,2) scale(1,1)"><path fill="none" stroke="#000000" d="M 652.1626748576241 348.790482243984 L 642 353 L 652.1626748576241 357.209517756016" stroke-miterlimit="10"/></g><g transform="translate(2,2) scale(1,1)"><g><path fill="none" stroke="none"/><text fill="#000000" stroke="none" font-family="JetBrains Mono" font-size="13px" font-style="normal" font-weight="normal" text-decoration="none" x="778.5" y="367.80999994277954">7 : OK</text></g></g><g transform="translate(2,2) scale(1,1)"><path fill="none" stroke="#000000" d="M 629 360 L 141 360" stroke-miterlimit="10"/></g><g transform="translate(2,2) scale(1,1)"><path fill="#000000" stroke="none" d="M 151.16267485762415 355.790482243984 L 141 360 L 151.16267485762415 364.209517756016"/></g><g transform="translate(2,2) scale(1,1)"><path fill="none" stroke="#000000" d="M 151.16267485762415 355.790482243984 L 141 360 L 151.16267485762415 364.209517756016 L 151.16267485762415 355.790482243984" stroke-miterlimit="10"/></g><g transform="translate(2,2) scale(1,1)"><g><path fill="none" stroke="none"/><text fill="#000000" stroke="none" font-family="JetBrains Mono" font-size="13px" font-style="normal" font-weight="normal" text-decoration="none" x="259.5" y="374.81650018692017">8 : Отрисовка экрана подключения</text></g></g><g transform="translate(2,2) scale(1,1)"><rect fill="#ffffff" stroke="none" x="128" y="360" width="13" height="96"/></g><g transform="translate(2,2) scale(1,1)"><path fill="none" stroke="#000000" d="M 128 360 L 141 360 L 141 456 L 128 456 L 128 360 Z Z" stroke-miterlimit="10"/></g><g transform="translate(2,2) scale(1,1)"><path fill="none" stroke="#000000" d="M 135 456 L 629 456" stroke-miterlimit="10"/></g><g transform="translate(2,2) scale(1,1)"><path fill="#000000" stroke="none" d="M 618.8373251423759 460.209517756016 L 629 456 L 618.8373251423758 451.790482243984"/></g><g transform="translate(2,2) scale(1,1)"><path fill="none" stroke="#000000" d="M 618.8373251423759 460.209517756016 L 629 456 L 618.8373251423758 451.790482243984 L 618.8373251423759 460.209517756016" stroke-miterlimit="10"/></g><g transform="translate(2,2) scale(1,1)"><g><path fill="none" stroke="none"/><text fill="#000000" stroke="none" font-family="JetBrains Mono" font-size="13px" font-style="normal" font-weight="normal" text-decoration="none" x="152.5" y="450.05049991607666">9 : Пользователь запрашивает Contraints перед подключением</text></g></g><g transform="translate(2,2) scale(1,1)"><rect fill="#ffffff" stroke="none" x="629" y="456" width="13" height="55"/></g><g transform="translate(2,2) scale(1,1)"><path fill="none" stroke="#000000" d="M 629 456 L 642 456 L 642 511 L 629 511 L 629 456 Z Z" stroke-miterlimit="10"/></g><g transform="translate(2,2) scale(1,1)"><path fill="none" stroke="#000000" d="M 629 496 L 141 496" stroke-miterlimit="10"/></g><g transform="translate(2,2) scale(1,1)"><path fill="#000000" stroke="none" d="M 151.16267485762415 491.790482243984 L 141 496 L 151.16267485762415 500.209517756016"/></g><g transform="translate(2,2) scale(1,1)"><path fill="none" stroke="#000000" d="M 151.16267485762415 491.790482243984 L 141 496 L 151.16267485762415 500.209517756016 L 151.16267485762415 491.790482243984" stroke-miterlimit="10"/></g><g transform="translate(2,2) scale(1,1)"><g><path fill="none" stroke="none"/><text fill="#000000" stroke="none" font-family="JetBrains Mono" font-size="13px" font-style="normal" font-weight="normal" text-decoration="none" x="152.5" y="490.102499961853">10 : Приложение показывает изменения состояний в интерфейсе</text></g></g><g transform="translate(2,2) scale(1,1)"><rect fill="#ffffff" stroke="none" x="128" y="496" width="13" height="48"/></g><g transform="translate(2,2) scale(1,1)"><path fill="none" stroke="#000000" d="M 128 496 L 141 496 L 141 544 L 128 544 L 128 496 Z Z" stroke-miterlimit="10"/></g><g transform="translate(2,2) scale(1,1)"><path fill="none" stroke="#000000" d="M 141 536 L 629 536" stroke-miterlimit="10"/></g><g transform="translate(2,2) scale(1,1)"><path fill="#000000" stroke="none" d="M 618.8373251423759 540.209517756016 L 629 536 L 618.8373251423758 531.790482243984"/></g><g transform="translate(2,2) scale(1,1)"><path fill="none" stroke="#000000" d="M 618.8373251423759 540.209517756016 L 629 536 L 618.8373251423758 531.790482243984 L 618.8373251423759 540.209517756016" stroke-miterlimit="10"/></g><g transform="translate(2,2) scale(1,1)"><g><path fill="none" stroke="none"/><text fill="#000000" stroke="none" font-family="JetBrains Mono" font-size="13px" font-style="normal" font-weight="normal" text-decoration="none" x="225.5" y="530.7449998855591">11 : Пользователь нажимает "Подключиться"</text></g></g><g transform="translate(2,2) scale(1,1)"><rect fill="#ffffff" stroke="none" x="629" y="536" width="13" height="208"/></g><g transform="translate(2,2) scale(1,1)"><path fill="none" stroke="#000000" d="M 629 536 L 642 536 L 642 744 L 629 744 L 629 536 Z Z" stroke-miterlimit="10"/></g><g transform="translate(2,2) scale(1,1)"><path fill="none" stroke="#000000" d="M 642 552 L 965 552" stroke-miterlimit="10"/></g><g transform="translate(2,2) scale(1,1)"><path fill="#000000" stroke="none" d="M 954.8373251423759 556.209517756016 L 965 552 L 954.8373251423758 547.790482243984"/></g><g transform="translate(2,2) scale(1,1)"><path fill="none" stroke="#000000" d="M 954.8373251423759 556.209517756016 L 965 552 L 954.8373251423758 547.790482243984 L 954.8373251423759 556.209517756016" stroke-miterlimit="10"/></g><g transform="translate(2,2) scale(1,1)"><g><path fill="none" stroke="none"/><text fill="#000000" stroke="none" font-family="JetBrains Mono" font-size="13px" font-style="normal" font-weight="normal" text-decoration="none" x="678.5" y="546.8099999427795">12 : Запрашивает соединение с WS</text></g></g><g transform="translate(2,2) scale(1,1)"><rect fill="#ffffff" stroke="none" x="965" y="552" width="13" height="272"/></g><g transform="translate(2,2) scale(1,1)"><path fill="none" stroke="#000000" d="M 965 552 L 978 552 L 978 824 L 965 824 L 965 552 Z Z" stroke-miterlimit="10"/></g><g transform="translate(2,2) scale(1,1)"><path fill="none" stroke="#000000" d="M 965 600 L 642 600" stroke-miterlimit="10" stroke-dasharray="3"/></g><g transform="translate(2,2) scale(1,1)"><path fill="none" stroke="#000000" d="M 652.1626748576241 595.790482243984 L 642 600 L 652.1626748576241 604.209517756016" stroke-miterlimit="10"/></g><g transform="translate(2,2) scale(1,1)"><g><path fill="none" stroke="none"/><text fill="#000000" stroke="none" font-family="JetBrains Mono" font-size="13px" font-style="normal" font-weight="normal" text-decoration="none" x="770.5" y="614.7449998855591">13 : ERR</text></g></g><g transform="translate(2,2) scale(1,1)"><path fill="none" stroke="#000000" d="M 629 615 L 141 615" stroke-miterlimit="10"/></g><g transform="translate(2,2) scale(1,1)"><path fill="#000000" stroke="none" d="M 151.16267485762415 610.790482243984 L 141 615 L 151.16267485762415 619.209517756016"/></g><g transform="translate(2,2) scale(1,1)"><path fill="none" stroke="#000000" d="M 151.16267485762415 610.790482243984 L 141 615 L 151.16267485762415 619.209517756016 L 151.16267485762415 610.790482243984" stroke-miterlimit="10"/></g><g transform="translate(2,2) scale(1,1)"><g><path fill="none" stroke="none"/><text fill="#000000" stroke="none" font-family="JetBrains Mono" font-size="13px" font-style="normal" font-weight="normal" text-decoration="none" x="243.5" y="629.8099999427795">14 : Отрисовывает ошибку подключения</text></g></g><g transform="translate(2,2) scale(1,1)"><rect fill="#ffffff" stroke="none" x="128" y="615" width="13" height="28"/></g><g transform="translate(2,2) scale(1,1)"><path fill="none" stroke="#000000" d="M 128 615 L 141 615 L 141 643 L 128 643 L 128 615 Z Z" stroke-miterlimit="10"/></g><g transform="translate(2,2) scale(1,1)"><path fill="none" stroke="#000000" d="M 965 704 L 642 704" stroke-miterlimit="10" stroke-dasharray="3"/></g><g transform="translate(2,2) scale(1,1)"><path fill="none" stroke="#000000" d="M 652.1626748576241 699.790482243984 L 642 704 L 652.1626748576241 708.209517756016" stroke-miterlimit="10"/></g><g transform="translate(2,2) scale(1,1)"><g><path fill="none" stroke="none"/><text fill="#000000" stroke="none" font-family="JetBrains Mono" font-size="13px" font-style="normal" font-weight="normal" text-decoration="none" x="774.5" y="718.8099999427795">15 : OK</text></g></g><g transform="translate(2,2) scale(1,1)"><path fill="none" stroke="#000000" d="M 629 720 L 141 720" stroke-miterlimit="10"/></g><g transform="translate(2,2) scale(1,1)"><path fill="#000000" stroke="none" d="M 151.16267485762415 715.790482243984 L 141 720 L 151.16267485762415 724.209517756016"/></g><g transform="translate(2,2) scale(1,1)"><path fill="none" stroke="#000000" d="M 151.16267485762415 715.790482243984 L 141 720 L 151.16267485762415 724.209517756016 L 151.16267485762415 715.790482243984" stroke-miterlimit="10"/></g><g transform="translate(2,2) scale(1,1)"><g><path fill="none" stroke="none"/><text fill="#000000" stroke="none" font-family="JetBrains Mono" font-size="13px" font-style="normal" font-weight="normal" text-decoration="none" x="216.5" y="735.102499961853">16 : Отрисовывает интерфейс с пользователем</text></g></g><g transform="translate(2,2) scale(1,1)"><rect fill="#ffffff" stroke="none" x="128" y="720" width="13" height="71"/></g><g transform="translate(2,2) scale(1,1)"><path fill="none" stroke="#000000" d="M 128 720 L 141 720 L 141 791 L 128 791 L 128 720 Z Z" stroke-miterlimit="10"/></g><g transform="translate(2,2) scale(1,1)"><path fill="none" stroke="#000000" d="M 965 808 L 642 808" stroke-miterlimit="10"/></g><g transform="translate(2,2) scale(1,1)"><path fill="none" stroke="#000000" d="M 652.1626748576241 803.790482243984 L 642 808 L 652.1626748576241 812.209517756016" stroke-miterlimit="10"/></g><g transform="translate(2,2) scale(1,1)"><g><path fill="none" stroke="none"/><text fill="#000000" stroke="none" font-family="JetBrains Mono" font-size="13px" font-style="normal" font-weight="normal" text-decoration="none" x="661.5" y="823.0504999160767">17 : Посылает user_id и secret_token</text></g></g><g transform="translate(2,2) scale(1,1)"><rect fill="#ffffff" stroke="none" x="629" y="808" width="13" height="48"/></g><g transform="translate(2,2) scale(1,1)"><path fill="none" stroke="#000000" d="M 629 808 L 642 808 L 642 856 L 629 856 L 629 808 Z Z" stroke-miterlimit="10"/></g><g transform="translate(2,2) scale(1,1)"><path fill="none" stroke="#000000" d="M 642 848 L 965 848" stroke-miterlimit="10"/></g><g transform="translate(2,2) scale(1,1)"><path fill="#000000" stroke="none" d="M 954.8373251423759 852.209517756016 L 965 848 L 954.8373251423758 843.790482243984"/></g><g transform="translate(2,2) scale(1,1)"><path fill="none" stroke="#000000" d="M 954.8373251423759 852.209517756016 L 965 848 L 954.8373251423758 843.790482243984 L 954.8373251423759 852.209517756016" stroke-miterlimit="10"/></g><g transform="translate(2,2) scale(1,1)"><g><path fill="none" stroke="none"/><text fill="#000000" stroke="none" font-family="JetBrains Mono" font-size="13px" font-style="normal" font-weight="normal" text-decoration="none" x="671.5" y="867.0504999160767">18 : Посылает данные о Contraints</text></g></g><g transform="translate(2,2) scale(1,1)"><rect fill="#ffffff" stroke="none" x="965" y="848" width="13" height="28"/></g><g transform="translate(2,2) scale(1,1)"><path fill="none" stroke="#000000" d="M 965 848 L 978 848 L 978 876 L 965 876 L 965 848 Z Z" stroke-miterlimit="10"/></g><g transform="translate(2,2) scale(1,1)"><path fill="none" stroke="#000000" d="M 104 248 L 984 248 L 984 424 L 104 424 L 104 248" stroke-miterlimit="10"/></g><g transform="translate(2,2) scale(1,1)"><path fill="#ffff91" stroke="none" d="M 104 248 L 104 270 L 424.19952392578125 270 L 435.19952392578125 259 L 435.19952392578125 248 L 104 248"/></g><g transform="translate(2,2) scale(1,1)"><path fill="none" stroke="#000000" d="M 104 248 L 104 270 L 424.19952392578125 270 L 435.19952392578125 259 L 435.19952392578125 248 L 104 248 L 104 248" stroke-miterlimit="10"/></g><g transform="translate(2,2) scale(1,1)"><g><path fill="none" stroke="none"/><text fill="#000000" stroke="none" font-family="JetBrains Mono" font-size="13px" font-style="normal" font-weight="normal" text-decoration="none" x="138.39996337890625" y="263.80999994277954">Отправка запроса на создание комнаты</text></g></g><g transform="translate(2,2) scale(1,1)"><g><path fill="none" stroke="none"/><text fill="#000000" stroke="none" font-family="JetBrains Mono" font-size="13px" font-style="normal" font-weight="bold" text-decoration="none" x="109" y="263.7449998855591">alt</text></g></g><g transform="translate(2,2) scale(1,1)"><path fill="none" stroke="#000000" d="M 104 337 L 984 337" stroke-miterlimit="10" stroke-dasharray="10,3"/></g><g transform="translate(2,2) scale(1,1)"><path fill="none" stroke="#000000" d="M 96 568 L 983 568 L 983 783 L 96 783 L 96 568" stroke-miterlimit="10"/></g><g transform="translate(2,2) scale(1,1)"><path fill="#ffff91" stroke="none" d="M 96 568 L 96 590 L 260.19976806640625 590 L 271.19976806640625 579 L 271.19976806640625 568 L 96 568"/></g><g transform="translate(2,2) scale(1,1)"><path fill="none" stroke="#000000" d="M 96 568 L 96 590 L 260.19976806640625 590 L 271.19976806640625 579 L 271.19976806640625 568 L 96 568 L 96 568" stroke-miterlimit="10"/></g><g transform="translate(2,2) scale(1,1)"><g><path fill="none" stroke="none"/><text fill="#000000" stroke="none" font-family="JetBrains Mono" font-size="13px" font-style="normal" font-weight="normal" text-decoration="none" x="130.39996337890625" y="583.8099999427795">Подключение к WS</text></g></g><g transform="translate(2,2) scale(1,1)"><g><path fill="none" stroke="none"/><text fill="#000000" stroke="none" font-family="JetBrains Mono" font-size="13px" font-style="normal" font-weight="bold" text-decoration="none" x="101" y="583.7449998855591">alt</text></g></g><g transform="translate(2,2) scale(1,1)"><path fill="none" stroke="#000000" d="M 96 681 L 983 681" stroke-miterlimit="10" stroke-dasharray="10,3"/></g></g></svg>